<svg width="18" height="20" viewBox="0 0 18 20" fill="none" xmlns="http://www.w3.org/2000/svg">
<g clip-path="url(#clip0_3_6998)">
<path d="M9 9.9655C10.6575 9.9655 12 8.55356 12 6.81032C12 5.06709 10.6575 3.65515 9 3.65515C7.3425 3.65515 6 5.06709 6 6.81032C6 8.55356 7.3425 9.9655 9 9.9655ZM9 11.5431C6.9975 11.5431 3 12.6001 3 14.6983V15.487C3 15.9209 3.3375 16.2758 3.75 16.2758H14.25C14.6625 16.2758 15 15.9209 15 15.487V14.6983C15 12.6001 11.0025 11.5431 9 11.5431Z" fill="#212121"/>
</g>
<defs>
<clipPath id="clip0_3_6998">
<rect width="18" height="18.931" fill="white" transform="translate(0 0.5)"/>
</clipPath>
</defs>
</svg>
